<?xml version="1.0" standalone="no"?>
<!DOCTYPE svg PUBLIC "-//W3C//DTD SVG 20010904//EN"
 "http://www.w3.org/TR/2001/REC-SVG-20010904/DTD/svg10.dtd">
<svg version="1.0" xmlns="http://www.w3.org/2000/svg"
 width="225.000000pt" height="225.000000pt" viewBox="0 0 225.000000 225.000000"
 preserveAspectRatio="xMidYMid meet">

<g transform="translate(0.000000,225.000000) scale(0.100000,-0.100000)"
fill="#000000" stroke="none">
<path d="M1550 1716 l0 -194 -23 -6 c-29 -7 -47 -44 -47 -96 0 -34 -4 -41 -25
-46 -54 -14 -55 -18 -55 -406 l0 -357 38 -3 37 -3 3 -77 3 -78 -31 0 c-25 0
-30 -4 -30 -25 l0 -25 155 0 155 0 0 25 c0 21 -5 25 -30 25 l-31 0 3 78 3 77
33 3 32 3 0 370 0 370 -30 17 c-24 13 -30 24 -30 50 0 46 -24 99 -49 107 -20
6 -21 12 -21 196 l0 189 -30 0 -30 0 0 -194z m68 -293 l3 -43 -40 0 c-41 0
-41 0 -41 38 0 47 6 54 45 50 28 -3 30 -6 33 -45z m72 -173 l0 -70 -52 0 c-61
0 -81 -10 -76 -36 3 -16 14 -20 66 -22 l62 -3 0 -49 0 -49 -62 -3 c-60 -3 -63
-4 -63 -28 0 -24 3 -25 63 -28 l62 -3 0 -49 0 -49 -62 -3 c-55 -3 -63 -5 -63
-23 0 -17 8 -21 60 -25 l60 -5 3 -72 3 -73 -116 0 -115 0 0 330 0 330 115 0
115 0 0 -70z m-70 -715 l0 -75 -40 0 -40 0 0 75 0 75 40 0 40 0 0 -75z"/>
<path d="M596 1424 c-3 -8 -6 -54 -6 -100 0 -81 1 -85 25 -94 17 -7 25 -17 25
-35 0 -20 -10 -30 -50 -50 -63 -32 -117 -86 -144 -144 -19 -42 -21 -63 -21
-251 0 -198 1 -206 24 -243 45 -73 64 -77 374 -77 268 0 275 0 308 23 18 12
44 38 56 56 22 33 23 42 23 240 0 196 -1 208 -24 257 -28 61 -72 105 -141 142
-60 32 -72 66 -30 82 26 10 26 10 23 107 l-3 98 -216 3 c-191 2 -217 0 -223
-14z m394 -94 l0 -50 -172 2 -173 3 -3 48 -3 47 175 0 176 0 0 -50z m-56 -138
c6 -43 29 -66 100 -102 60 -30 101 -84 115 -151 6 -27 11 -118 11 -202 0 -174
-10 -209 -70 -240 -31 -16 -62 -17 -287 -15 l-253 3 -32 33 -33 32 -3 179 c-2
105 1 195 7 219 18 63 63 117 125 146 59 28 86 63 86 111 l0 25 114 0 113 0 7
-38z"/>
<path d="M730 950 l0 -50 -55 0 -55 0 0 -95 0 -95 55 0 55 0 0 -50 0 -50 95 0
95 0 0 50 0 50 50 0 50 0 0 95 0 95 -50 0 -50 0 0 50 0 50 -95 0 -95 0 0 -50z
m130 -60 l0 -50 50 0 50 0 0 -35 0 -35 -50 0 -50 0 0 -56 0 -55 -37 3 -38 3
-3 53 -3 52 -50 0 -49 0 0 35 0 35 50 0 50 0 0 50 0 50 40 0 40 0 0 -50z"/>
</g>
</svg>
